<svg width="193" height="103" viewBox="0 0 193 103" fill="none" xmlns="http://www.w3.org/2000/svg">
<g clip-path="url(#clip0_1571_65)">
<path d="M100.772 41.2578C102.108 48.9756 93.9123 46.9199 93.9123 46.9199C90.4822 37.2546 84.9941 38.1563 84.9941 38.1563C89.2907 41.2939 89.6157 43.9626 89.6157 43.9626C78.17 35.8481 62.6082 42.3758 56.6868 45.4413C53.365 40.7529 46.6493 30.2581 49.0323 25.4976C52.1735 19.2585 58.5643 22.8289 58.5643 22.8289C71.4904 22.6125 70.7682 17.9962 70.7682 17.9962C67.3381 20.665 57.2284 17.9962 57.2284 17.9962C66.0022 17.9962 69.7212 14.4259 69.7212 14.4259C63.1859 16.0488 55.8925 9.08833 55.8925 9.08833C53.2206 -4.58009 40.8723 1.22629 40.8723 1.22629C48.599 -0.108098 46.541 8.07853 46.541 8.07853C36.8645 11.5046 37.7672 16.9864 37.7672 16.9864C40.9084 12.6948 43.5803 12.3702 43.5803 12.3702C34.7343 24.8124 43.2553 42.1233 45.7828 46.6314C41.1612 49.8411 30.3293 56.9098 25.455 54.4574C19.2086 51.3198 22.7831 44.9364 22.7831 44.9364C22.6387 32.0253 18.0171 32.7466 18.0171 32.7466C20.6889 36.1727 18.0171 46.2708 18.0171 46.2708C18.0171 37.5071 14.4426 33.7925 14.4426 33.7925C16.0674 40.3201 9.09886 47.6051 9.09886 47.6051C-4.58539 50.2739 1.2277 62.6079 1.2277 62.6079C-0.108225 54.8901 8.08788 56.9458 8.08788 56.9458C11.518 66.6111 17.0061 65.7095 17.0061 65.7095C12.7095 62.5719 12.3845 59.9031 12.3845 59.9031C24.4801 68.4864 41.1973 60.6965 46.2521 57.9556C49.6461 62.8243 55.9647 72.8502 53.6178 77.5025C50.4766 83.7417 44.0858 80.1713 44.0858 80.1713C31.1597 80.3156 31.8819 84.9318 31.8819 84.9318C35.312 82.263 45.4217 84.9318 45.4217 84.9318C36.6479 84.9318 32.9289 88.5022 32.9289 88.5022C39.4642 86.8793 46.7576 93.8397 46.7576 93.8397C49.4295 107.508 61.7778 101.702 61.7778 101.702C54.0511 103.036 56.1091 94.8495 56.1091 94.8495C65.7856 91.4234 64.8829 85.9416 64.8829 85.9416C61.7417 90.2333 59.0698 90.5579 59.0698 90.5579C67.7353 78.4042 59.7558 61.5621 57.0479 56.6212C61.9583 53.1951 71.8875 47.0642 76.473 49.3723C82.7194 52.5099 79.1449 58.8933 79.1449 58.8933C79.2893 71.8044 83.9109 71.0831 83.9109 71.0831C81.239 67.657 83.9109 57.5589 83.9109 57.5589C83.9109 66.3226 87.4854 70.0372 87.4854 70.0372C85.8606 63.5095 92.8291 56.2245 92.8291 56.2245C106.586 53.5918 100.772 41.2578 100.772 41.2578Z" fill="url(#paint0_linear_1571_65)"/>
</g>
<path d="M117 29H119.321V56.4049H126.251V29H128.572V75H126.251V58.7131H119.321V75H117V29Z" fill="url(#paint1_linear_1571_65)"/>
<path d="M145.431 29L139.678 58.7131V75H137.357V58.7131L131.572 29H133.696L138.534 53.7717L143.339 29H145.431Z" fill="url(#paint2_linear_1571_65)"/>
<path d="M155.394 75H148.431V29H155.361C157.944 29 159.97 31.0481 159.97 33.5837V70.3837C160.003 72.8869 157.944 75 155.394 75ZM150.752 31.3081V72.6919H155.361C156.603 72.6919 157.682 71.6516 157.682 70.3837V33.5837C157.682 32.3484 156.636 31.2756 155.361 31.2756H150.752V31.3081Z" fill="url(#paint3_linear_1571_65)"/>
<path d="M174.542 75H172.156L168.07 58.7131H165.292V75H162.971V29H169.901C172.483 29 174.51 31.0481 174.51 33.5837V54.0968C174.51 56.4049 172.712 58.3555 170.424 58.6155L174.542 75ZM165.292 56.4049H169.901C171.143 56.4049 172.221 55.3647 172.221 54.0968V33.5837C172.221 32.3484 171.175 31.2756 169.901 31.2756H165.292V56.4049Z" fill="url(#paint4_linear_1571_65)"/>
<path d="M181.236 58.7131L179.634 75H177.542L182.184 29H186.793L191.402 75H189.31L187.708 58.7131H181.236ZM184.93 31.3081H184.015L181.498 56.4049H187.447L184.93 31.3081Z" fill="url(#paint5_linear_1571_65)"/>
<defs>
<linearGradient id="paint0_linear_1571_65" x1="50.9966" y1="0.00115967" x2="50.9966" y2="102.927" gradientUnits="userSpaceOnUse">
<stop stop-color="#C0B7E8"/>
<stop offset="1" stop-color="#8176AF"/>
</linearGradient>
<linearGradient id="paint1_linear_1571_65" x1="122.786" y1="29" x2="122.786" y2="75" gradientUnits="userSpaceOnUse">
<stop stop-color="#C0B7E8"/>
<stop offset="1" stop-color="#8176AF"/>
</linearGradient>
<linearGradient id="paint2_linear_1571_65" x1="138.502" y1="29" x2="138.502" y2="75" gradientUnits="userSpaceOnUse">
<stop stop-color="#C0B7E8"/>
<stop offset="1" stop-color="#8176AF"/>
</linearGradient>
<linearGradient id="paint3_linear_1571_65" x1="154.201" y1="29" x2="154.201" y2="75" gradientUnits="userSpaceOnUse">
<stop stop-color="#C0B7E8"/>
<stop offset="1" stop-color="#8176AF"/>
</linearGradient>
<linearGradient id="paint4_linear_1571_65" x1="168.757" y1="29" x2="168.757" y2="75" gradientUnits="userSpaceOnUse">
<stop stop-color="#C0B7E8"/>
<stop offset="1" stop-color="#8176AF"/>
</linearGradient>
<linearGradient id="paint5_linear_1571_65" x1="184.472" y1="29" x2="184.472" y2="75" gradientUnits="userSpaceOnUse">
<stop stop-color="#C0B7E8"/>
<stop offset="1" stop-color="#8176AF"/>
</linearGradient>
<clipPath id="clip0_1571_65">
<rect width="102" height="103" fill="white"/>
</clipPath>
</defs>
</svg>
